<mxfile host="app.diagrams.net" modified="2021-08-21T16:32:38.345Z" agent="5.0 (Windows NT 10.0; Win64; x64) AppleWebKit/537.36 (KHTML, like Gecko) Chrome/92.0.4515.159 Safari/537.36" etag="g4MTvbhW7JBgxgMTtrKd" version="14.9.7" type="github">
  <diagram id="kgpKYQtTHZ0yAKxKKP6v" name="Page-1">
    <mxGraphModel dx="1038" dy="579" grid="1" gridSize="10" guides="1" tooltips="1" connect="1" arrows="1" fold="1" page="1" pageScale="1" pageWidth="850" pageHeight="1100" math="0" shadow="0">
      <root>
        <mxCell id="0" />
        <mxCell id="1" parent="0" />
        <mxCell id="3nuBFxr9cyL0pnOWT2aG-1" value="Khách hàng&#xa;&amp; Admin" style="shape=umlLifeline;perimeter=lifelinePerimeter;container=1;collapsible=0;recursiveResize=0;rounded=0;shadow=0;strokeWidth=1;" parent="1" vertex="1">
          <mxGeometry x="120" y="80" width="100" height="320" as="geometry" />
        </mxCell>
        <mxCell id="3nuBFxr9cyL0pnOWT2aG-2" value="" style="points=[];perimeter=orthogonalPerimeter;rounded=0;shadow=0;strokeWidth=1;" parent="3nuBFxr9cyL0pnOWT2aG-1" vertex="1">
          <mxGeometry x="45" y="60" width="10" height="40" as="geometry" />
        </mxCell>
        <mxCell id="3nuBFxr9cyL0pnOWT2aG-5" value="Thiết bị/Giao diện" style="shape=umlLifeline;perimeter=lifelinePerimeter;container=1;collapsible=0;recursiveResize=0;rounded=0;shadow=0;strokeWidth=1;" parent="1" vertex="1">
          <mxGeometry x="300" y="80" width="100" height="320" as="geometry" />
        </mxCell>
        <mxCell id="3nuBFxr9cyL0pnOWT2aG-6" value="" style="points=[];perimeter=orthogonalPerimeter;rounded=0;shadow=0;strokeWidth=1;" parent="3nuBFxr9cyL0pnOWT2aG-5" vertex="1">
          <mxGeometry x="45" y="100" width="10" height="40" as="geometry" />
        </mxCell>
        <mxCell id="3nuBFxr9cyL0pnOWT2aG-8" value="Nhập Username &amp; Password" style="verticalAlign=bottom;endArrow=block;shadow=0;strokeWidth=1;" parent="1" source="3nuBFxr9cyL0pnOWT2aG-2" target="3nuBFxr9cyL0pnOWT2aG-6" edge="1">
          <mxGeometry relative="1" as="geometry">
            <mxPoint x="275" y="160" as="sourcePoint" />
            <mxPoint x="320" y="200" as="targetPoint" />
            <Array as="points">
              <mxPoint x="240" y="180" />
              <mxPoint x="320" y="180" />
            </Array>
          </mxGeometry>
        </mxCell>
        <mxCell id="SNe4Yx7RqZjrMgdyrNR1-2" value="Hệ thống" style="shape=umlLifeline;perimeter=lifelinePerimeter;container=1;collapsible=0;recursiveResize=0;rounded=0;shadow=0;strokeWidth=1;" vertex="1" parent="1">
          <mxGeometry x="480" y="80" width="100" height="320" as="geometry" />
        </mxCell>
        <mxCell id="SNe4Yx7RqZjrMgdyrNR1-3" value="" style="points=[];perimeter=orthogonalPerimeter;rounded=0;shadow=0;strokeWidth=1;" vertex="1" parent="SNe4Yx7RqZjrMgdyrNR1-2">
          <mxGeometry x="45" y="140" width="10" height="40" as="geometry" />
        </mxCell>
        <mxCell id="SNe4Yx7RqZjrMgdyrNR1-4" value="Kiểm tra hệ thống" style="verticalAlign=bottom;endArrow=block;shadow=0;strokeWidth=1;" edge="1" parent="1" source="3nuBFxr9cyL0pnOWT2aG-6" target="SNe4Yx7RqZjrMgdyrNR1-3">
          <mxGeometry relative="1" as="geometry">
            <mxPoint x="350" y="160.0000000000001" as="sourcePoint" />
            <mxPoint x="520" y="160.0000000000001" as="targetPoint" />
            <Array as="points">
              <mxPoint x="410" y="220" />
            </Array>
          </mxGeometry>
        </mxCell>
        <mxCell id="SNe4Yx7RqZjrMgdyrNR1-9" value="" style="html=1;points=[];perimeter=orthogonalPerimeter;" vertex="1" parent="1">
          <mxGeometry x="525" y="300" width="10" height="40" as="geometry" />
        </mxCell>
        <mxCell id="SNe4Yx7RqZjrMgdyrNR1-10" value="" style="edgeStyle=orthogonalEdgeStyle;html=1;align=left;spacingLeft=2;endArrow=block;rounded=0;entryX=1;entryY=0;" edge="1" target="SNe4Yx7RqZjrMgdyrNR1-9" parent="1">
          <mxGeometry relative="1" as="geometry">
            <mxPoint x="535" y="250" as="sourcePoint" />
            <Array as="points">
              <mxPoint x="535" y="260" />
              <mxPoint x="565" y="260" />
              <mxPoint x="565" y="300" />
            </Array>
          </mxGeometry>
        </mxCell>
        <mxCell id="SNe4Yx7RqZjrMgdyrNR1-11" value="Trả về xác thực đúng" style="html=1;verticalAlign=bottom;endArrow=block;" edge="1" parent="1" source="SNe4Yx7RqZjrMgdyrNR1-3" target="SNe4Yx7RqZjrMgdyrNR1-12">
          <mxGeometry width="80" relative="1" as="geometry">
            <mxPoint x="520" y="260" as="sourcePoint" />
            <mxPoint x="460" y="300" as="targetPoint" />
            <Array as="points">
              <mxPoint x="500" y="260" />
              <mxPoint x="440" y="260" />
            </Array>
          </mxGeometry>
        </mxCell>
        <mxCell id="SNe4Yx7RqZjrMgdyrNR1-12" value="" style="points=[];perimeter=orthogonalPerimeter;rounded=0;shadow=0;strokeWidth=1;" vertex="1" parent="1">
          <mxGeometry x="345" y="260" width="10" height="40" as="geometry" />
        </mxCell>
        <mxCell id="SNe4Yx7RqZjrMgdyrNR1-14" value="Hiển thị trang Index" style="html=1;verticalAlign=bottom;endArrow=block;" edge="1" parent="1" source="SNe4Yx7RqZjrMgdyrNR1-12" target="3nuBFxr9cyL0pnOWT2aG-1">
          <mxGeometry width="80" relative="1" as="geometry">
            <mxPoint x="345" y="299" as="sourcePoint" />
            <mxPoint x="175" y="299" as="targetPoint" />
            <Array as="points">
              <mxPoint x="320" y="299" />
              <mxPoint x="260" y="299" />
            </Array>
          </mxGeometry>
        </mxCell>
        <mxCell id="SNe4Yx7RqZjrMgdyrNR1-15" value="Trả về xác thực sai" style="html=1;verticalAlign=bottom;endArrow=block;" edge="1" parent="1" source="SNe4Yx7RqZjrMgdyrNR1-9" target="SNe4Yx7RqZjrMgdyrNR1-16">
          <mxGeometry width="80" relative="1" as="geometry">
            <mxPoint x="525" y="360" as="sourcePoint" />
            <mxPoint x="355" y="360" as="targetPoint" />
            <Array as="points">
              <mxPoint x="500" y="340" />
              <mxPoint x="440" y="340" />
              <mxPoint x="400" y="340" />
            </Array>
          </mxGeometry>
        </mxCell>
        <mxCell id="SNe4Yx7RqZjrMgdyrNR1-16" value="" style="html=1;points=[];perimeter=orthogonalPerimeter;" vertex="1" parent="1">
          <mxGeometry x="345" y="340" width="10" height="40" as="geometry" />
        </mxCell>
        <mxCell id="SNe4Yx7RqZjrMgdyrNR1-17" value="Hiển thị thông báo &amp;amp; Reload &lt;br&gt;lại trang trước đó" style="html=1;verticalAlign=bottom;endArrow=block;" edge="1" parent="1" source="SNe4Yx7RqZjrMgdyrNR1-16" target="3nuBFxr9cyL0pnOWT2aG-1">
          <mxGeometry width="80" relative="1" as="geometry">
            <mxPoint x="345" y="400" as="sourcePoint" />
            <mxPoint x="175" y="400" as="targetPoint" />
            <Array as="points">
              <mxPoint x="320" y="380" />
              <mxPoint x="270" y="380" />
            </Array>
          </mxGeometry>
        </mxCell>
        <mxCell id="SNe4Yx7RqZjrMgdyrNR1-18" value="Đăng nhập" style="text;align=center;fontStyle=1;verticalAlign=middle;spacingLeft=3;spacingRight=3;strokeColor=none;rotatable=0;points=[[0,0.5],[1,0.5]];portConstraint=eastwest;" vertex="1" parent="1">
          <mxGeometry x="310" y="40" width="80" height="26" as="geometry" />
        </mxCell>
      </root>
    </mxGraphModel>
  </diagram>
</mxfile>
